<svg width="63" height="64" viewBox="0 0 63 64" fill="none" xmlns="http://www.w3.org/2000/svg">
<path fill-rule="evenodd" clip-rule="evenodd" d="M13.9653 5.47353L13.9652 5.47355L13.9652 5.47356C13.9535 5.48477 13.9417 5.49592 13.9291 5.50661C14.1077 5.3151 14.3644 5.10866 14.5332 4.99674C19.4582 1.74102 25.1487 0 31.4628 0C37.3684 0 42.9 1.65895 47.6221 4.54407C47.9644 4.75051 48.8986 5.40215 49.3803 5.99409V5.99658C44.8245 0.887922 31.4334 11.8489 31.4334 11.8489C26.8018 8.21763 22.5419 5.74289 19.3702 4.86243C16.7194 4.12374 14.8853 4.74056 14.0147 5.42951C13.9966 5.44368 13.9809 5.45866 13.9653 5.47353ZM54.3463 10.0515L54.3463 10.0515C54.2664 9.96757 54.1861 9.88329 54.1096 9.79451C52.9578 8.50864 51.5419 8.19774 50.2654 8.2823C49.1038 8.65289 43.7362 10.6202 37.1213 16.9725C37.1213 16.9725 44.5676 24.337 49.1283 31.8657C53.6818 39.3906 56.4056 45.3055 54.7357 53.5117C54.688 53.2345 53.935 49.0974 49.8425 43.247C48.8472 41.8293 45.2109 37.4046 43.1738 35.0816C41.1539 32.776 38.1485 29.473 34.1796 25.4587C33.3115 24.5808 32.3944 23.6655 31.431 22.7179C31.431 22.7179 29.9808 24.1928 28.093 26.1328V26.1303C25.6769 28.6125 22.5443 31.8508 20.8056 33.741C17.7097 37.1012 8.84018 47.6543 8.34132 53.5713C8.34132 53.5713 6.36787 48.878 10.6987 38.0538C13.528 30.9778 22.0772 20.3526 25.6475 16.8904C25.6475 16.8904 22.3854 13.2392 18.2917 10.7172L18.2673 10.7098C18.2673 10.7098 18.2208 10.6725 18.1474 10.6252C16.1789 9.43137 14.0294 8.51112 11.9605 8.38924C9.8477 8.54096 8.51005 10.1129 8.51005 10.1129C3.2304 15.8383 0 23.5337 0 32C0 49.6714 14.0856 64 31.4627 64C40.6844 64 48.9817 59.9559 54.7382 53.5265C54.7382 53.5264 54.738 53.5252 54.7376 53.5231C54.7375 53.5222 54.7373 53.521 54.7371 53.5197C59.8188 47.837 62.918 40.2877 62.918 31.9975C62.918 23.6058 59.7414 15.9677 54.54 10.2596C54.4772 10.189 54.4119 10.1204 54.3463 10.0515ZM54.7371 53.5197C54.7367 53.5175 54.7362 53.5149 54.7357 53.5117C54.7349 53.5158 54.734 53.5199 54.7332 53.524C54.7345 53.5226 54.7358 53.5211 54.7371 53.5197Z" fill="white"/>
</svg>
